<svg xmlns="http://www.w3.org/2000/svg" width="32" height="32" viewBox="0 0 32 32"><path d="M 6.7617188 0 C 3.0151988 0 4.185751e-017 3.0171519 0 6.7636719 L 0 25.238281 C 0 28.984801 3.0151988 32 6.7617188 32 L 25.238281 32 C 28.984801 32 32 28.984801 32 25.238281 L 32 6.7636719 C 32 3.0171519 28.984801 4.185751e-017 25.238281 0 L 6.7617188 0 z M 18.5 8 A 0.50004986 0.50004986 0 0 1 19 8.53125 L 19 10 L 22 10 L 22 8.53125 A 0.50004986 0.50004986 0 0 1 22.5 8 A 0.50004986 0.50004986 0 0 1 23 8.53125 L 23 10 L 24.5 10 C 24.775659 10 24.99998 10.2244 25 10.5 L 25 16.5 C 24.99998 16.7757 24.775659 17 24.5 17 L 20.6875 17 C 20.606259 16.6579 20.59374 16.2868 20.3125 16 L 24 16 L 24 11 L 22.625 11 A 0.50004986 0.50004986 0 0 1 22.375 11 L 18.625 11 A 0.50004986 0.50004986 0 0 1 18.40625 11 L 17 11 L 17 12.6875 C 17 12.6875 16.4183 12.3015 16 12.3125 L 16 10.5 C 16.00003 10.2244 16.22434 10 16.5 10 L 18 10 L 18 8.53125 A 0.50004986 0.50004986 0 0 1 18.5 8 z M 18 12 L 19 12 L 19 13 L 18 13 L 18 12 z M 20 12 L 21 12 L 21 13 L 20 13 L 20 12 z M 22 12 L 23 12 L 23 13 L 22 13 L 22 12 z M 14.5 13 C 17.52841 13 19.999939 15.4716 20 18.5 C 20 21.5284 17.52845 24 14.5 24 C 11.47154 24 9 21.5284 9 18.5 C 9.00006 15.4716 11.47159 13 14.5 13 z M 14.5 14 C 12.0111 14 10.00004 16.0111 10 18.5 C 9.99999 20.989 12.01106 23 14.5 23 C 16.98894 23 19.00001 20.989 19 18.5 C 18.99996 16.0111 16.9889 14 14.5 14 z M 20 14 L 21 14 L 21 15 L 20 15 L 20 14 z M 22 14 L 23 14 L 23 15 L 22 15 L 22 14 z M 14.4375 14.65625 A 0.50004986 0.50004986 0 0 1 14.5 14.65625 A 0.50004986 0.50004986 0 0 1 15 15.1875 L 15 18 L 17.5 18 A 0.50004986 0.50004986 0 1 1 17.5 19 L 14.5 19 A 0.50004986 0.50004986 0 0 1 14 18.5 L 14 15.1875 A 0.50004986 0.50004986 0 0 1 14.4375 14.65625 z "/></svg>